# xmcd
#
# Track frame offsets:
# 180
# 23518
# 41850
# 67607
# 91570
# 114824
# 134685
# 157114
# 171643
# 184862
# 255576
# 283935
#
# Disc length: 4036 seconds
#
#
# Revision: 0
# Processed by: cddbd v1.4PL0 Copyright (c) Steve Scherf et al.
# Submitted via: FreeRIP 2.00 
#
DISCID=a10fc20c
DTITLE=Mississippi Mudsharks - Workin' for Nickels and Dimes
DYEAR=1994
DGENRE=Blues
TTITLE0=Workin' for Nickels and Dimes
TTITLE1=Bad, Bad World
TTITLE2=Never Satisfied Man
TTITLE3=Feelin' All Out of My Head
TTITLE4=Dance Mama Dance
TTITLE5=Boogie Shack
TTITLE6=Sidetracked
TTITLE7=Stealin Me Blind
TTITLE8=Don't be Skimpin' on the Gravy
TTITLE9=The Highway and the Freeway
TTITLE10=So Much to Lose
TTITLE11=Baby What You Do?
EXTD=
EXTT0=
EXTT1=
EXTT2=
EXTT3=
EXTT4=
EXTT5=
EXTT6=
EXTT7=
EXTT8=
EXTT9=
EXTT10=
EXTT11=
PLAYORDER=
